<svg id="visual" viewBox="0 0 1920 1080" width="1920" height="1080" xmlns="http://www.w3.org/2000/svg" xmlns:xlink="http://www.w3.org/1999/xlink" version="1.1"><path d="M0 228L40 220.8C80 213.7 160 199.3 240 183.2C320 167 400 149 480 140C560 131 640 131 720 156.2C800 181.3 880 231.7 960 240.7C1040 249.7 1120 217.3 1200 208.3C1280 199.3 1360 213.7 1440 204.7C1520 195.7 1600 163.3 1680 138.2C1760 113 1840 95 1880 86L1920 77L1920 0L1880 0C1840 0 1760 0 1680 0C1600 0 1520 0 1440 0C1360 0 1280 0 1200 0C1120 0 1040 0 960 0C880 0 800 0 720 0C640 0 560 0 480 0C400 0 320 0 240 0C160 0 80 0 40 0L0 0Z" fill="#bcbcbc"></path><path d="M0 325L40 317.8C80 310.7 160 296.3 240 276.5C320 256.7 400 231.3 480 229.5C560 227.7 640 249.3 720 276.3C800 303.3 880 335.7 960 344.7C1040 353.7 1120 339.3 1200 337.5C1280 335.7 1360 346.3 1440 339.2C1520 332 1600 307 1680 274.7C1760 242.3 1840 202.7 1880 182.8L1920 163L1920 75L1880 84C1840 93 1760 111 1680 136.2C1600 161.3 1520 193.7 1440 202.7C1360 211.7 1280 197.3 1200 206.3C1120 215.3 1040 247.7 960 238.7C880 229.7 800 179.3 720 154.2C640 129 560 129 480 138C400 147 320 165 240 181.2C160 197.3 80 211.7 40 218.8L0 226Z" fill="#b0b0b0"></path><path d="M0 411L40 407.5C80 404 160 397 240 384.5C320 372 400 354 480 345C560 336 640 336 720 355.8C800 375.7 880 415.3 960 427.8C1040 440.3 1120 425.7 1200 429.2C1280 432.7 1360 454.3 1440 450.8C1520 447.3 1600 418.7 1680 393.5C1760 368.3 1840 346.7 1880 335.8L1920 325L1920 161L1880 180.8C1840 200.7 1760 240.3 1680 272.7C1600 305 1520 330 1440 337.2C1360 344.3 1280 333.7 1200 335.5C1120 337.3 1040 351.7 960 342.7C880 333.7 800 301.3 720 274.3C640 247.3 560 225.7 480 227.5C400 229.3 320 254.7 240 274.5C160 294.3 80 308.7 40 315.8L0 323Z" fill="#a5a5a5"></path><path d="M0 746L40 717.2C80 688.3 160 630.7 240 619.8C320 609 400 645 480 668.5C560 692 640 703 720 694C800 685 880 656 960 636.2C1040 616.3 1120 605.7 1200 634.5C1280 663.3 1360 731.7 1440 740.7C1520 749.7 1600 699.3 1680 686.8C1760 674.3 1840 699.7 1880 712.3L1920 725L1920 323L1880 333.8C1840 344.7 1760 366.3 1680 391.5C1600 416.7 1520 445.3 1440 448.8C1360 452.3 1280 430.7 1200 427.2C1120 423.7 1040 438.3 960 425.8C880 413.3 800 373.7 720 353.8C640 334 560 334 480 343C400 352 320 370 240 382.5C160 395 80 402 40 405.5L0 409Z" fill="#969696"></path><path d="M0 973L40 956.8C80 940.7 160 908.3 240 906.5C320 904.7 400 933.3 480 940.5C560 947.7 640 933.3 720 933.3C800 933.3 880 947.7 960 944C1040 940.3 1120 918.7 1200 918.7C1280 918.7 1360 940.3 1440 949.3C1520 958.3 1600 954.7 1680 943.8C1760 933 1840 915 1880 906L1920 897L1920 723L1880 710.3C1840 697.7 1760 672.3 1680 684.8C1600 697.3 1520 747.7 1440 738.7C1360 729.7 1280 661.3 1200 632.5C1120 603.7 1040 614.3 960 634.2C880 654 800 683 720 692C640 701 560 690 480 666.5C400 643 320 607 240 617.8C160 628.7 80 686.3 40 715.2L0 744Z" fill="#858585"></path><path d="M0 1081L40 1081C80 1081 160 1081 240 1081C320 1081 400 1081 480 1081C560 1081 640 1081 720 1081C800 1081 880 1081 960 1081C1040 1081 1120 1081 1200 1081C1280 1081 1360 1081 1440 1081C1520 1081 1600 1081 1680 1081C1760 1081 1840 1081 1880 1081L1920 1081L1920 895L1880 904C1840 913 1760 931 1680 941.8C1600 952.7 1520 956.3 1440 947.3C1360 938.3 1280 916.7 1200 916.7C1120 916.7 1040 938.3 960 942C880 945.7 800 931.3 720 931.3C640 931.3 560 945.7 480 938.5C400 931.3 320 902.7 240 904.5C160 906.3 80 938.7 40 954.8L0 971Z" fill="#747474"></path></svg>